<?xml version="1.0" standalone="no"?>
<!DOCTYPE svg PUBLIC "-//W3C//DTD SVG 20010904//EN"
 "http://www.w3.org/TR/2001/REC-SVG-20010904/DTD/svg10.dtd">
<svg version="1.0" xmlns="http://www.w3.org/2000/svg"
 width="500.000000pt" height="500.000000pt" viewBox="0 0 500.000000 500.000000"
 preserveAspectRatio="xMidYMid meet">
<metadata>
Created by potrace 1.11, written by Peter Selinger 2001-2013
</metadata>
<g transform="translate(0.000000,500.000000) scale(0.100000,-0.100000)"
fill="#000000" stroke="none">
<path d="M0 2500 l0 -2500 2500 0 2500 0 0 2500 0 2500 -2500 0 -2500 0 0
-2500z m2620 1048 c143 -43 261 -164 300 -307 15 -58 13 -186 -4 -242 -31
-101 -76 -164 -159 -226 -177 -130 -429 -106 -579 55 -156 167 -159 419 -6
594 102 117 296 171 448 126z m-1520 -1198 c11 -11 20 -33 20 -51 0 -26 -3
-30 -22 -27 -15 2 -24 11 -26 26 -4 26 -39 31 -49 6 -6 -17 24 -84 38 -84 5 0
20 -17 34 -37 32 -48 34 -114 5 -143 -45 -45 -130 -8 -130 56 0 31 3 35 22 32
14 -2 24 -12 28 -28 5 -23 11 -26 40 -21 24 3 9 58 -26 92 -44 42 -64 79 -64
119 0 66 85 105 130 60z m245 -5 c24 -23 25 -30 25 -150 0 -120 -1 -127 -25
-150 -29 -30 -74 -32 -106 -6 -23 19 -24 24 -24 156 0 132 1 137 24 156 32 26
77 24 106 -6z m1155 7 c13 -11 23 -33 27 -60 5 -40 4 -42 -20 -42 -22 0 -26 5
-29 33 -2 24 -8 33 -24 35 -27 4 -34 -19 -34 -123 0 -104 7 -127 34 -123 16 2
22 11 24 41 3 32 6 37 29 37 25 0 25 -2 20 -47 -8 -76 -73 -108 -128 -64 -23
19 -24 24 -24 156 0 132 1 137 24 156 29 24 72 24 101 1z m255 -7 c24 -23 25
-30 25 -150 0 -120 -1 -127 -25 -150 -15 -16 -36 -25 -55 -25 -19 0 -40 9 -55
25 -24 23 -25 30 -25 150 0 120 1 127 25 150 15 16 36 25 55 25 19 0 40 -9 55
-25z m1005 15 c18 -10 40 -59 40 -91 0 -14 -7 -19 -25 -19 -19 0 -25 5 -25 23
0 32 -14 50 -36 45 -17 -3 -19 -14 -19 -123 0 -109 2 -120 19 -123 23 -5 36
14 36 51 0 22 4 27 25 27 29 0 33 -24 14 -79 -19 -55 -82 -69 -124 -26 -24 23
-25 30 -25 150 0 120 1 127 25 150 25 26 63 32 95 15z m-2238 -142 c3 -135 4
-143 23 -143 19 0 20 8 23 143 l3 142 24 0 25 0 0 -145 c0 -142 -1 -147 -25
-170 -29 -30 -74 -32 -106 -6 -23 18 -24 26 -27 170 l-4 151 31 0 30 0 3 -142z
m288 50 l25 -93 3 93 c2 84 4 92 22 92 19 0 20 -8 20 -165 l0 -165 -25 0 c-20
0 -26 7 -36 43 -6 23 -19 71 -29 107 l-19 65 0 -107 -1 -108 -25 0 -25 0 0
165 0 165 33 0 32 0 25 -92z m309 73 c25 -25 35 -94 28 -195 -7 -101 -21 -116
-108 -116 l-59 0 0 165 0 165 60 0 c46 0 65 -5 79 -19z m835 -33 c8 -29 19
-69 24 -88 9 -30 10 -23 11 53 1 86 1 87 26 87 l25 0 0 -165 0 -165 -28 0
c-27 0 -28 3 -57 113 l-30 112 -3 -112 c-3 -113 -3 -113 -27 -113 l-25 0 0
165 0 165 34 0 c33 0 35 -2 50 -52z m276 -40 l25 -93 3 93 c2 84 4 92 22 92
19 0 20 -8 20 -165 l0 -165 -25 0 c-20 0 -26 7 -36 43 -6 23 -19 71 -29 107
l-19 65 0 -107 -1 -108 -25 0 -25 0 0 165 0 165 33 0 32 0 25 -92z m320 67 c0
-23 -4 -25 -45 -25 l-45 0 0 -45 c0 -45 0 -45 35 -45 31 0 35 -3 35 -25 0 -22
-4 -25 -35 -25 -35 0 -35 0 -35 -45 l0 -45 45 0 c41 0 45 -2 45 -25 0 -24 -2
-25 -70 -25 l-70 0 0 165 0 165 70 0 c68 0 70 -1 70 -25z m488 3 c-2 -17 -11
-24 -30 -26 l-28 -3 0 -140 0 -139 -25 0 -25 0 0 139 0 140 -27 3 c-20 2 -29
9 -31 26 -3 21 -1 22 83 22 84 0 86 -1 83 -22z"/>
<path d="M2347 3343 c-11 -10 -8 -441 2 -448 24 -14 31 42 31 229 0 214 -5
248 -33 219z"/>
<path d="M2280 3126 c0 -106 2 -126 15 -126 13 0 15 18 13 122 -2 86 -7 123
-15 126 -10 3 -13 -26 -13 -122z"/>
<path d="M2404 3237 c-2 -7 -3 -62 -2 -123 3 -94 5 -109 21 -112 15 -3 17 8
17 122 0 107 -2 126 -15 126 -9 0 -18 -6 -21 -13z"/>
<path d="M2530 3125 c0 -104 2 -125 15 -125 13 0 15 21 15 125 0 104 -2 125
-15 125 -13 0 -15 -21 -15 -125z"/>
<path d="M2660 3125 c0 -104 2 -125 15 -125 13 0 15 21 15 125 0 104 -2 125
-15 125 -13 0 -15 -21 -15 -125z"/>
<path d="M2472 3123 c4 -86 22 -85 26 2 2 54 0 65 -13 65 -13 0 -15 -11 -13
-67z"/>
<path d="M2594 3176 c-3 -7 -4 -35 -2 -62 2 -37 7 -50 21 -52 15 -3 17 5 17
62 0 53 -3 66 -15 66 -9 0 -18 -6 -21 -14z"/>
<path d="M2724 3177 c-3 -8 -4 -36 -2 -63 2 -36 7 -49 18 -49 20 0 22 116 3
122 -7 3 -16 -2 -19 -10z"/>
<path d="M2220 3125 c0 -33 4 -45 15 -45 11 0 15 12 15 45 0 33 -4 45 -15 45
-11 0 -15 -12 -15 -45z"/>
<path d="M2784 3156 c-9 -22 0 -69 13 -73 15 -5 27 38 18 66 -7 24 -23 27 -31
7z"/>
<path d="M1266 2298 c-8 -30 -8 -176 0 -206 5 -16 13 -22 28 -20 20 3 21 8 21
123 0 115 -1 120 -21 123 -15 2 -23 -4 -28 -20z"/>
<path d="M2674 2307 c-2 -7 -3 -62 -2 -123 3 -97 5 -109 22 -112 10 -2 22 2
27 10 10 15 12 198 3 222 -7 19 -43 21 -50 3z"/>
<path d="M2040 2195 c0 -115 0 -116 23 -113 21 3 22 7 22 113 0 106 -1 110
-22 113 -23 3 -23 2 -23 -113z"/>
</g>
</svg>
